HIERARCHY
ROOT Hips
{
	OFFSET	0.00	0.00	0.00
	CHANNELS 6 Xposition Yposition Zposition Zrotation Xrotation Yrotation
	JOINT Spine
	{
		OFFSET	 0.00	0.01	 0.00
		CHANNELS 3 Zrotation Xrotation Yrotation
		JOINT Spine1
		{
			OFFSET	 0.00	 2.45913012437421	 0.00
			CHANNELS 3 Zrotation Xrotation Yrotation
            JOINT Neck
            {
                OFFSET	 0.00	 2.48462964506057	 0.00
                CHANNELS 3 Zrotation Xrotation Yrotation
                JOINT Head
                {
                    OFFSET	 0.00	 0.927524780924562	 0.00
                    CHANNELS 3 Zrotation Xrotation Yrotation
                    End Site 
                    {
                        OFFSET	 0.00	 1.14999962169752	 0.00
                    }
                }
            }
			JOINT LeftShoulder
			{
				OFFSET	 0.00	 2.48462964506057	 0.00
				CHANNELS 3 Zrotation Xrotation Yrotation
				JOINT LeftUpArm
				{
					OFFSET	 0.00	 1.24881979654096	 0.00
					CHANNELS 3 Zrotation Xrotation Yrotation
					JOINT LeftForeArm
					{
						OFFSET	 0.00	2.59758046908119	 0.00
						CHANNELS 3 Zrotation Xrotation Yrotation
						JOINT LeftHand
						{
							OFFSET	 0.00	2.45542024364365	 0.00
							CHANNELS 3 Zrotation Xrotation Yrotation
							JOINT LeftHandThumb 
							{
								OFFSET	 0.00	0.00	 0.00
								CHANNELS 3 Zrotation Xrotation Yrotation
								End Site
								{
									OFFSET	 0.00	0.00	1.00000003353624
								}
							}
							JOINT L_Wrist_End 
							{
								OFFSET	 0.00	0.99999967115358	 0.00
								CHANNELS 3 Zrotation Xrotation Yrotation
								End Site 
								{
									OFFSET	 0.00	 0.00	 0.00
								}
							}
						}
					}
				}
			}
			JOINT RightShoulder
			{
				OFFSET	 0.00	 2.48462964506057	 0.00
				CHANNELS 3 Zrotation Xrotation Yrotation
				JOINT RightUpArm
				{
					OFFSET	 0.00	 1.24881979654096	 0.00
					CHANNELS 3 Zrotation Xrotation Yrotation
					JOINT RightForeArm
					{
						OFFSET	 0.00	2.59758046908119	 0.00
						CHANNELS 3 Zrotation Xrotation Yrotation
						JOINT RightHand
						{
							OFFSET	 0.00	2.45542024364365	 0.00
							CHANNELS 3 Zrotation Xrotation Yrotation
							JOINT RightHandThumb 
							{
								OFFSET	 0.00	0.00	 0.00
								CHANNELS 3 Zrotation Xrotation Yrotation
								End Site
								{
									OFFSET	 0.00	0.00	1.00000003353624
								}
							}
							JOINT R_Wrist_End 
							{
								OFFSET	 0.00	0.99999967115358	 0.00
								CHANNELS 3 Zrotation Xrotation Yrotation
								End Site 
								{
									OFFSET	 0.00	 0.00	 0.00
								}
							}
						}
					}
				}
			}
		}
	}
	JOINT LeftUpLeg
	{
		OFFSET	 1.2719394002717	 0.00	 0.00
		CHANNELS 3 Zrotation Xrotation Yrotation
		JOINT LeftLowLeg
		{
			OFFSET	 0.00	-4.3429100912261	 0.00
			CHANNELS 3 Zrotation Xrotation Yrotation
			JOINT LeftFoot
			{
				OFFSET	 0.00	-4.48767017425826	 0.00
				CHANNELS 3 Zrotation Xrotation Yrotation
				JOINT LeftToeBase
                {
                    OFFSET	 0.00	0.00	 1.51507020887566
                    CHANNELS 3 Zrotation Xrotation Yrotation
                    End Site 
                    {
                        OFFSET	 0.00	0.00	 0.75000010571191
                    }
                }
			}
		}
	}
	JOINT RightUpLeg
	{
		OFFSET	 -1.2719393604653	 0.00	 0.00
		CHANNELS 3 Zrotation Xrotation Yrotation
		JOINT RightLowLeg
		{
			OFFSET	 0.00	-4.3429100912261	 0.00
			CHANNELS 3 Zrotation Xrotation Yrotation
			JOINT RightFoot
			{
				OFFSET	 0.00	-4.48767017425826	 0.00
				CHANNELS 3 Zrotation Xrotation Yrotation
				JOINT RightToeBase
                {
                    OFFSET	 0.00	0.00	 1.51507020887566
                    CHANNELS 3 Zrotation Xrotation Yrotation
                    End Site 
                    {
                        OFFSET	 0.00	0.00	 0.749999965609858
                    }
                }   
			}
		}
	}
}
MOTION 
Frames:	10 
Frame Time: 0.02 
  3.004930114746094 6.643740234375 6.215440063476563 -18.9424 74.0312 18.4498 7.00552 15.0513 -3.38557 -0.496045 15.2253 -2.59052 -2.84855 25.7653 9.1629 11.5877 -57.4948 6.76229 -102.3954 3.26854 5.128 -22.3918 50.6801 -3.81284 0.0 77.4077 0.0 30.922 -19.048 -25.1124 0.0 0.0 0.0 0.0 0.0 0.0 109.985 3.1511 -6.83197 25.3541 32.8299 -5.90238 0.0 88.3109 0.0 -2.40836 -13.7608 39.1649 0.0 0.0 0.0 0.0 0.0 0.0 14.3957 -61.146 11.035 0.0 89.5229 0.0 11.1211 -0.17160034 0.905528 0.0 -39.4821 0.0 -3.8594 -58.362 -10.0407 0.0 87.3006 0.0 16.0007 -0.39649963 1.97542 0.0 -26.9068 0.0 
  3.005880126953125 6.6447601318359375 6.21333984375 -18.9542 74.0458 18.4632 7.23408 15.5198 -3.4406 -0.878826 14.1305 -2.5777 -3.1603 26.4217 9.52136 11.8965 -57.7188 6.81103 -102.2769 3.32625 5.57044 -22.2912 51.1897 -4.57329 0.0 76.4053 0.0 30.5897 -18.9228 -25.4313 0.0 0.0 0.0 0.0 0.0 0.0 110.3481 3.01807 -7.40823 25.3261 33.1123 -5.82317 0.0 88.0526 0.0 -2.45899 -13.6316 38.4874 0.0 0.0 0.0 0.0 0.0 0.0 14.38 -61.1914 11.0236 0.0 89.5444 0.0 11.1278 -0.1630001 0.920186 0.0 -39.4892 0.0 -3.88229 -58.4049 -10.0519 0.0 87.3249 0.0 16.024 -0.3874998 1.98852 0.0 -26.9301 0.0 
  3.006669921875 6.645599975585937 6.213359985351563 -19.007 74.0468 18.5246 7.23836 15.7087 -3.61117 -0.863235 13.6762 -2.76335 -3.51538 26.814 9.95809 11.9007 -57.836 7.03689 -102.3003 3.10034 5.65643 -22.2734 51.7408 -5.24926 0.0 75.3796 0.0 30.2887 -18.7104 -25.5805 0.0 0.0 0.0 0.0 0.0 0.0 110.4163 3.27404 -7.74913 25.4377 33.3783 -5.7924 0.0 87.8097 0.0 -2.4408 -13.7247 38.627 0.0 0.0 0.0 0.0 0.0 0.0 14.359 -61.2075 10.9905 0.0 89.5403 0.0 11.1153 -0.1541996 0.922125 0.0 -39.4769 0.0 -3.8955 -58.4061 -10.0736 0.0 87.3092 0.0 16.0118 -0.36670017 1.98887 0.0 -26.957901 0.0 
  3.00697998046875 6.646090087890625 6.212730102539062 -19.0046 74.0362 18.5292 7.22203 15.823 -3.66624 -0.8213 13.3701 -2.83151 -3.91068 26.9463 10.3498 11.8519 -57.8829 6.82838 -102.3068 3.13827 5.72655 -22.268 52.2303 -5.86959 0.0 74.3043 0.0 29.5777 -18.4458 -26.2828 0.0 0.0 0.0 0.0 0.0 0.0 110.4355 3.37855 -7.88806 25.6315 33.586 -5.80766 0.0 87.4878 0.0 -2.43931 -13.6963 38.7292 0.0 0.0 0.0 0.0 0.0 0.0 14.3396 -61.2102 10.9659 0.0 89.5445 0.0 11.1293 -0.14560032 0.931425 0.0 -39.4842 0.0 -3.90077 -58.4022 -10.0786 0.0 87.3122 0.0 16.0227 -0.37450027 1.98349 0.0 -26.9276 0.0 
  3.006610107421875 6.644920043945312 6.21469970703125 -18.9296 73.9137 18.461 6.82797 14.4728 -3.282 -0.158627 16.4287 -2.54185 -3.76492 24.5717 10.0794 10.7614 -56.8232 5.51929 -101.7578 4.00447 4.14783 -23.3233 53.0689 -6.0049 0.0 73.1313 0.0 28.5566 -18.0786 -27.0586 0.0 0.0 0.0 0.0 0.0 0.0 109.656 3.09737 -6.10451 26.435 34.1492 -6.00723 0.0 87.1689 0.0 -2.20717 -13.6909 38.8571 0.0 0.0 0.0 0.0 0.0 0.0 14.3186 -61.0676 10.9214 0.0 89.5328 0.0 11.1268 -0.16110039 0.914254 0.0 -39.490402 0.0 -3.84596 -58.2475 -10.0402 0.0 87.2892 0.0 16.0415 -0.3845997 1.98795 0.0 -26.932701 0.0 
  3.005679931640625 6.644390258789063 6.215540161132813 -18.973 73.929 18.5043 6.6188 14.4579 -3.36166 0.220387 16.3821 -2.69437 -4.31814 24.5691 10.63 10.6505 -56.8386 5.31053 -102.0203 3.94561 4.06336 -23.2564 53.5129 -6.49677 0.0 71.9586 0.0 27.3082 -17.7115 -27.6514 0.0 0.0 0.0 0.0 0.0 0.0 109.573 3.29439 -6.19203 26.4918 34.4172 -6.09817 0.0 86.8731 0.0 -2.51936 -13.7507 39.16 0.0 0.0 0.0 0.0 0.0 0.0 14.3689 -61.0758 10.9714 0.0 89.533 0.0 11.157 -0.16390038 0.915607 0.0 -39.4925 0.0 -3.80495 -58.2568 -10.0035 0.0 87.2813 0.0 16.0296 -0.39280033 1.96508 0.0 -26.9418 0.0 
  3.0057501220703124 6.646510009765625 6.214860229492188 -18.9185 73.9093 18.4721 6.60613 14.5143 -3.40351 0.188475 16.2394 -2.74578 -4.54697 24.6324 10.9139 10.7204 -56.8189 5.26525 -101.9387 4.00235 4.06049 -23.4264 54.0076 -6.74892 0.0 70.6269 0.0 26.251 -17.2217 -27.7239 0.0 0.0 0.0 0.0 0.0 0.0 109.6086 3.37965 -6.30813 26.6402 34.6279 -6.09883 0.0 86.5215 0.0 -2.42841 -13.7131 38.5806 0.0 0.0 0.0 0.0 0.0 0.0 14.3501 -61.0527 10.9647 0.0 89.4947 0.0 11.1312 -0.17389965 0.864727 0.0 -39.487602 0.0 -3.82811 -58.2479 -10.0125 0.0 87.2771 0.0 16.0242 -0.37080002 1.95519 0.0 -26.9721 0.0 
  3.0054800415039065 6.647119750976563 6.214010009765625 -18.9247 73.8962 18.4705 6.68434 14.7157 -3.49883 0.0130394 15.7232 -2.82266 -4.82324 24.9918 11.2726 10.9403 -56.8437 5.33752 -101.906296 3.92433 4.19408 -23.6293 54.4367 -6.75312 0.0 69.2066 0.0 25.4209 -16.89 -27.6084 0.0 0.0 0.0 0.0 0.0 0.0 109.8297 3.53225 -6.64499 26.6094 34.7781 -6.17166 0.0 86.2011 0.0 -2.58663 -13.8918 38.9136 0.0 0.0 0.0 0.0 0.0 0.0 14.397 -61.0518 11.0188 0.0 89.508 0.0 11.1552 -0.17300034 0.872037 0.0 -39.4622 0.0 -3.79332 -58.2501 -9.97809 0.0 87.2829 0.0 16.0439 -0.3685999 1.94779 0.0 -26.967201 0.0 
  3.005920104980469 6.648179931640625 6.212349853515625 -18.9857 73.879 18.5216 6.94895 15.2221 -3.61663 -0.465064 14.5243 -2.86135 -4.97478 25.9807 11.5233 11.4936 -57.1714 5.8619 -101.8125 3.88484 4.76137 -23.724 54.7442 -6.64927 0.0 67.7657 0.0 24.9608 -16.6824 -27.9961 0.0 0.0 0.0 0.0 0.0 0.0 110.2277 3.58794 -7.28872 26.5774 34.8243 -6.19219 0.0 85.833 0.0 -2.41768 -13.8953 38.9767 0.0 0.0 0.0 0.0 0.0 0.0 14.4255 -61.0794 11.0278 0.0 89.5452 0.0 11.1651 -0.1406002 0.885628 0.0 -39.4946 0.0 -3.75443 -58.2583 -9.94806 0.0 87.2873 0.0 16.0528 -0.36089993 1.9463 0.0 -26.949501 0.0 
  3.0054901123046873 6.647069702148437 6.213690185546875 -19.0086 73.7837 18.5499 6.64804 14.6894 -3.5014 0.0945303 15.7208 -2.83988 -5.20015 25.1597 11.71 11.0052 -56.8159 5.22768 -101.7407 4.22258 4.16584 -24.3093 55.223 -6.26464 0.0 66.3628 0.0 24.7099 -16.499 -28.1849 0.0 0.0 0.0 0.0 0.0 0.0 109.765 3.57737 -6.63663 26.9407 35.156 -6.37221 0.0 85.4629 0.0 -2.37897 -13.8812 38.9245 0.0 0.0 0.0 0.0 0.0 0.0 14.435 -60.9918 10.9972 0.0 89.5583 0.0 11.1702 -0.14330006 0.878653 0.0 -39.4791 0.0 -3.70189 -58.1398 -9.93627 0.0 87.2618 0.0 16.0415 -0.36489964 1.93233 0.0 -26.9614 0.0 
